<svg xmlns="http://www.w3.org/2000/svg" viewBox="0 0 32 32" width="32" height="32">
  <defs>
    <linearGradient id="bo" x1="0%" y1="0%" x2="100%" y2="100%">
      <stop offset="0%" style="stop-color:#3b82f6"/>
      <stop offset="100%" style="stop-color:#f97316"/>
    </linearGradient>
  </defs>
  <rect width="32" height="32" rx="6" fill="#0f172a"/>
  <path d="M6 8 L6 24 L10 24 L10 14 L16 14 C20 14, 22 12, 22 10 C22 8, 20 6, 16 6 L6 6 Z" fill="url(#bo)"/>
  <path d="M17 11 C17 9, 19 8, 21 8 C23 8, 24 9, 24 10.5 C24 12, 23 13, 21 13 L23 13 C26 13, 27 14.5, 27 17 C27 19.5, 26 21, 23 21 C20 21, 18 19.5, 18 17 L14 17 C14 20, 16 21, 19 21 C22 21, 23 20, 23 19 C23 18, 22 17.5, 20 17 C18 16.5, 17 15, 17 13 L17 11 Z" fill="#f97316" opacity="0.9"/>
</svg>
